<svg width="149" height="145" viewBox="0 0 149 145" fill="none" xmlns="http://www.w3.org/2000/svg">
<path d="M89.1751 85.0717L63.7858 85.0572H47.1357L51.2121 74.1914L78.7862 74.2059C82.5913 74.2059 85.9932 76.5384 87.3202 80.0734L89.1751 85.0717Z" fill="white"/>
<path d="M74.0203 23.7236L68.5436 36.748L62.5024 51.1343L60.5742 55.7051L58.5946 60.4136L56.0139 66.5709L54.9362 69.1352L54.0344 71.2794L43.2423 96.9588H40.1777C35.962 96.9588 33.11 92.7284 34.7303 88.8819L43.0296 69.128L50.5959 51.127L59.8703 29.0478C61.2047 25.8605 64.3573 23.7815 67.8471 23.7815L74.0203 23.7236Z" fill="white"/>
<path d="M97.3565 66.8751L63.3232 66.8896L65.8013 61.8189C67.5316 58.2695 71.168 56.0166 75.1491 56.0094L92.0411 56.0021L97.3565 66.8751Z" fill="white"/>
<path d="M104.366 96.2127L101.426 96.5025L96.6237 85.0499L95.48 82.348L92.0488 74.1842L90.9198 71.4822L89.93 69.1352L82.3638 51.1343L77.8035 40.283C76.7478 37.7694 76.7478 34.937 77.8035 32.4089L81.44 23.767C81.44 23.767 86.9167 36.451 93.2219 51.1343C95.7513 57.038 98.4273 63.2677 100.92 69.1352C104.131 76.6616 107.064 83.5794 109.095 88.4328C110.539 91.9316 108.171 95.8288 104.366 96.2127Z" fill="white"/>
<path d="M131.779 108.875C128.245 108.875 125.041 106.767 123.677 103.514L115.136 83.1738L110.568 72.3298L109.219 69.128L109.043 68.7151L108.083 66.4115L105.443 60.1166L104.813 58.6751L103.589 55.7196L101.66 51.1343L100.649 48.7148L95.1719 35.6904C98.7277 35.6904 101.932 37.8201 103.273 41.0508L107.526 51.1343L109.454 55.7196L110.7 58.6751L111.925 61.5944L113.164 64.5499L113.948 66.4188L115.084 69.1352L115.612 70.3956L131.779 108.875Z" fill="white"/>
<path d="M49.76 35.6976L44.2833 48.7221L43.2715 51.1343L41.3433 55.7196L40.1116 58.6751L39.4957 60.1384L35.72 69.1425L34.371 72.3442L29.8107 83.1955L21.2621 103.522C19.8984 106.76 16.7018 108.882 13.1533 108.882L29.8547 69.1352L31.7829 64.5499L33.0146 61.5944L34.2463 58.6751L35.478 55.7196L37.4062 51.1343L41.6439 41.0581C43.0149 37.8128 46.2188 35.6976 49.76 35.6976Z" fill="white"/>
</svg>
